<?xml version="1.0" encoding="utf-8"?>
<!-- Generator: Adobe Illustrator 23.0.3, SVG Export Plug-In . SVG Version: 6.00 Build 0)  -->
<svg version="1.1" id="Layer_1" xmlns="http://www.w3.org/2000/svg" xmlns:xlink="http://www.w3.org/1999/xlink" x="0px" y="0px"
	 viewBox="0 0 150 39" style="enable-background:new 0 0 150 39;" xml:space="preserve">
<style type="text/css">
	.st0{fill:#FFFFFF;}
</style>
<g>
	<g>
		<polygon class="st0" points="55.1,31.8 45,31.8 45,7.8 49.7,7.8 49.7,27.2 55.1,27.2 55.1,31.8 		"/>
		<path class="st0" d="M76,18.3c-0.5-1.2-1.2-2.2-2.1-3.1c-0.9-0.8-2-1.5-3.2-2c-1.2-0.5-2.5-0.7-3.9-0.7c-1.4,0-2.7,0.2-3.9,0.7
			c-1.2,0.5-2.3,1.1-3.2,2c-0.9,0.8-1.6,1.9-2.2,3.1c-0.5,1.2-0.8,2.5-0.8,4c0,1.5,0.2,2.8,0.7,4c0.5,1.2,1.2,2.2,2.1,3.1
			c0.9,0.9,1.9,1.5,3.2,2c1.2,0.5,2.5,0.7,3.9,0.7c1.4,0,2.7-0.2,3.9-0.7c1.2-0.5,2.3-1.2,3.2-2c0.9-0.9,1.6-1.9,2.2-3.1
			c0.5-1.2,0.8-2.5,0.8-4C76.8,20.8,76.5,19.5,76,18.3z M71.7,24.4c-0.2,0.7-0.6,1.4-1,1.9c-0.4,0.6-1,1-1.7,1.4
			c-0.7,0.4-1.5,0.5-2.4,0.5c-0.9,0-1.7-0.2-2.4-0.5c-0.7-0.4-1.2-0.8-1.6-1.4c-0.4-0.6-0.8-1.2-1-1.9c-0.2-0.7-0.3-1.4-0.3-2.2
			c0-0.7,0.1-1.4,0.4-2.1c0.2-0.7,0.6-1.3,1-1.9c0.4-0.6,1-1,1.7-1.4c0.7-0.3,1.5-0.5,2.4-0.5c0.9,0,1.7,0.2,2.4,0.5
			c0.7,0.3,1.2,0.8,1.6,1.4c0.4,0.6,0.8,1.2,1,1.9c0.2,0.7,0.3,1.4,0.3,2.1C72.1,23,71.9,23.7,71.7,24.4z"/>
		<path class="st0" d="M89.5,18c-0.4-0.5-1-1-1.7-1.4c-0.7-0.4-1.5-0.6-2.4-0.6c-0.7,0-1.4,0.2-2,0.5c-0.6,0.3-0.9,0.8-0.9,1.5
			c0,0.7,0.3,1.2,1,1.5c0.7,0.3,1.7,0.6,3,0.9c0.7,0.2,1.4,0.4,2.1,0.6c0.7,0.3,1.3,0.6,1.9,1c0.6,0.4,1,1,1.4,1.6
			c0.4,0.6,0.5,1.4,0.5,2.3c0,1.1-0.2,2.1-0.6,2.9c-0.4,0.8-1,1.4-1.7,1.9c-0.7,0.5-1.5,0.8-2.5,1.1c-0.9,0.2-1.9,0.3-2.9,0.3
			c-1.4,0-2.8-0.3-4.2-0.8c-1.4-0.5-1.8-1-2.7-2l2.4-3.1c0.5,0.7,1.2,1.2,2,1.7c0.8,0.4,1.7,0.7,2.7,0.7c0.3,0,0.7,0,1-0.1
			c0.3-0.1,0.7-0.2,1-0.4c0.3-0.2,0.5-0.4,0.7-0.7c0.2-0.3,0.3-0.6,0.3-1c0-0.8-0.4-1.3-1.1-1.7c-0.7-0.3-1.8-0.7-3.2-1
			c-0.7-0.2-1.4-0.4-2-0.6c-0.7-0.2-1.2-0.6-1.8-1c-0.5-0.4-0.9-0.9-1.2-1.5c-0.3-0.6-0.5-1.3-0.5-2.2c0-1,0.2-1.9,0.6-2.7
			c0.4-0.7,1-1.4,1.7-1.8c0.7-0.5,1.5-0.8,2.4-1.1c0.9-0.2,1.8-0.3,2.7-0.3c1.3,0,2.6,0.2,3.9,0.7c1.3,0.5,2.3,1.2,3,2.1L89.5,18
			L89.5,18z"/>
		<path class="st0" d="M112.8,18.2c-0.4-1.2-1-2.3-1.8-3.1c-0.8-0.8-1.7-1.5-2.8-1.9c-1.1-0.4-2.3-0.6-3.6-0.6
			c-1.4,0-2.7,0.2-3.9,0.7c-1.2,0.5-2.3,1.1-3.2,2c-0.9,0.9-1.6,1.9-2.2,3.1c-0.5,1.2-0.8,2.6-0.9,4.1c0,1.5,0.2,2.9,0.6,4.1
			c0.5,1.2,1.1,2.2,2,3c0.9,0.8,1.9,1.5,3.1,1.9c1.2,0.4,2.5,0.7,4,0.7c3.5,0,6.2-1.2,8.1-3.7l-3-2.5c-0.5,0.7-1.2,1.3-2,1.8
			c-0.8,0.4-1.8,0.6-3,0.6c-0.7,0-1.3-0.1-1.9-0.3c-0.6-0.2-1.2-0.5-1.6-0.9c-0.5-0.4-0.9-0.9-1.1-1.4c-0.3-0.6-0.4-1.2-0.5-1.8
			h14.1c0-0.2,0.1-0.4,0.1-0.6c0-0.2,0-0.4,0-0.6C113.4,20.9,113.2,19.4,112.8,18.2z M108.8,20.5h-9.5c0.1-1.3,0.7-2.4,1.7-3.2
			c1-0.8,2.2-1.3,3.6-1.3c0.7,0,1.4,0.1,1.9,0.4c0.5,0.2,1,0.6,1.3,1c0.3,0.4,0.6,0.9,0.7,1.4C108.7,19.3,108.8,19.9,108.8,20.5z"/>
		<polygon class="st0" points="123,31.8 123,7.8 127.7,7.8 127.7,31.8 123,31.8 		"/>
		<path class="st0" d="M141.7,13.1l0,4H137l0,8.3c0,0.8,0.1,1.5,0.4,2c0.3,0.5,0.7,0.8,1.7,0.8c0.3,0,0.5,0,0.9-0.1
			c0.4-0.1,0.7-0.2,1-0.3l0.1,3.6c-0.4,0.2-0.9,0.3-1.5,0.4c-0.6,0.1-1.1,0.1-1.6,0.1c-1.2,0-2.2-0.2-3-0.5
			c-0.8-0.3-1.4-0.8-1.8-1.4c-0.4-0.6-0.6-1.3-0.8-2.1c-0.2-0.8-0.1-1.6-0.1-2.5l0-8.3H130l0-3.9h2.3l0-5.5h4.7l0,5.4H141.7
			L141.7,13.1z"/>
		<path class="st0" d="M148.7,30.9c-0.6,0.6-1.3,0.9-2.2,0.9c-0.4,0-0.8-0.1-1.2-0.2c-0.4-0.2-0.7-0.4-1-0.6
			c-0.3-0.3-0.5-0.6-0.7-0.9c-0.2-0.4-0.2-0.7-0.2-1.2c0-0.8,0.3-1.5,0.9-2.1c0.6-0.6,1.3-0.9,2.2-0.9c0.8,0,1.5,0.3,2.2,0.8
			c0.6,0.6,0.9,1.3,0.9,2.1C149.6,29.6,149.3,30.3,148.7,30.9L148.7,30.9z"/>
		<polygon class="st0" points="144.1,23.3 144.1,7.7 148.7,7.7 148.7,23.3 144.1,23.3 		"/>
	</g>
	<g>
		<path class="st0" d="M31.1,0.8H8.8c-4.4,0-7.9,3.5-7.9,7.9v22.3c0,4.4,3.5,7.9,7.9,7.9h22.3c4.4,0,7.9-3.5,7.9-7.9V8.7
			C39.1,4.4,35.5,0.8,31.1,0.8z M20,14.3c-5.1,0-9.3-2.6-9.3-5.8c0-3.2,4.2-5.8,9.3-5.8c5.1,0,9.3,2.6,9.3,5.8
			C29.3,11.7,25.1,14.3,20,14.3z"/>
		<path class="st0" d="M20,12.9L20,12.9c-0.2,0-0.4-0.2-0.4-0.4V4.4C19.6,4.2,19.8,4,20,4l0,0c0.2,0,0.4,0.2,0.4,0.4v8.1
			C20.4,12.7,20.2,12.9,20,12.9z"/>
		<g>
			<g>
				<path class="st0" d="M17.9,5.8c-0.2,0.1-0.6-0.9-0.7-1.2c0-0.3,0.3-0.3,0.3-0.3s0.3-0.1,0.4,0.2C18.1,4.7,18.1,5.7,17.9,5.8"/>
				<path class="st0" d="M15.7,6.2c-0.2,0.1-0.6-0.5-0.7-0.7c0-0.2,0.2-0.3,0.2-0.3s0.2-0.1,0.4,0C15.8,5.3,15.9,6.1,15.7,6.2"/>
				<path class="st0" d="M14.2,7.1c-0.1,0.1-0.6-0.2-0.7-0.4c-0.1-0.1,0.1-0.3,0.1-0.3s0.2-0.2,0.3-0.1C14,6.4,14.3,6.9,14.2,7.1"/>
			</g>
			<g>
				<path class="st0" d="M22,5.8c0.2,0.1,0.6-0.9,0.7-1.2c0-0.3-0.3-0.3-0.3-0.3S22.1,4.2,22,4.4C21.9,4.7,21.8,5.7,22,5.8"/>
				<path class="st0" d="M24.2,6.2c0.2,0.1,0.6-0.5,0.7-0.7c0-0.2-0.2-0.3-0.2-0.3s-0.2-0.1-0.4,0C24.2,5.3,24,6.1,24.2,6.2"/>
				<path class="st0" d="M25.8,7.1c0.1,0.1,0.6-0.2,0.7-0.4c0.1-0.1-0.1-0.3-0.1-0.3s-0.2-0.2-0.3-0.1C25.9,6.4,25.6,6.9,25.8,7.1"
					/>
			</g>
		</g>
	</g>
</g>
</svg>
