<svg id="Layer_1" data-name="Layer 1" xmlns="http://www.w3.org/2000/svg" viewBox="0 0 2978.79 1043.51"><defs><style>.cls-1{opacity:0.15;}.cls-2{fill:#ffc27f;}</style></defs><g class="cls-1"><path class="cls-2" d="M2105.69,611.94s25.19,48.79,83.78,6.09C2189.47,618,2153.81,561.56,2105.69,611.94Z" transform="translate(0 0)"/><path class="cls-2" d="M2098.05,615s-7,.82-7.33-4.35c0,0,18.62-41.95,48.08-65.79a79.67,79.67,0,0,1,36.51,16.6S2108,614.1,2098.05,615Z" transform="translate(0 0)"/><path class="cls-2" d="M2091.53,613.47s54.71-61.69-36.82-120.65C2054.71,492.82,1994.91,573.34,2091.53,613.47Z" transform="translate(0 0)"/><path class="cls-2" d="M2198.89,837.47a262,262,0,0,1-25.65,29.43A232.7,232.7,0,0,1,2104.55,914c-22.3,9.95-43.7,16.71-67.91,10.51-12.09-3.09-25.19-7.5-35.65-14.4-10.83-7.16-20.18-16.59-32-22.24l2.26,1.26c-14-6.65-30.34-6.71-44.88-12.57-15.64-6.29-33.2-15.94-43.61-29.53-10.07-13.15-14.91-28.23-20.22-43.7-23.76-69.09-6.1-177.6,55.21-223.42,58.62-43.82,127-10.23,178.47,27.78l2.64,1.2c29.37,6.5,60.44,16.45,85.7,32.73,0,0-27.2,0-28.23,36.52,0,0-29.9,11.29-31,41-.84,23.32,20.27,41.29,32.35,45.39,0,0-22.06,17.85-8.38,47.38C2163.28,841.93,2198.89,837.47,2198.89,837.47Z" transform="translate(0 0)"/><path class="cls-2" d="M2783.45,506.73l.34.12a18.21,18.21,0,0,1,10.72,23.42l-28.73,77.23a9.61,9.61,0,0,0,5.66,12.36l.18.07a9.62,9.62,0,0,0,12.37-5.66L2812.72,537a18.2,18.2,0,0,1,23.41-10.71l.38.14a18.21,18.21,0,0,1,10.72,23.41l-28.73,77.23a9.6,9.6,0,0,0,5.66,12.36l.18.07a9.61,9.61,0,0,0,12.36-5.66l28.73-77.22a18.21,18.21,0,0,1,23.42-10.72l.35.13a18.2,18.2,0,0,1,10.71,23.41L2860,676.87a73.62,73.62,0,0,1-45.66,44.21c-18,6.08-31.66,21-37.27,39.24l-78.46,254.4a40.8,40.8,0,0,1-53.21,26.21l-.82-.3A40.81,40.81,0,0,1,2621.4,986l106.9-243.83c7.64-17.43,7.11-37.66-2.57-54a73.61,73.61,0,0,1-5.65-63.29l40-107.4A18.21,18.21,0,0,1,2783.45,506.73Z" transform="translate(0 0)"/><path class="cls-2" d="M2224,74.36c-15.13-50.82-57.15-83.16-93.85-72.24s-54.19,61-39.06,111.81c9.09,30.55,27.9,54.4,49.42,66.2a57.69,57.69,0,0,1,28.8,37.07l58.26,246.19A37.92,37.92,0,0,0,2275.24,491l.77-.23a37.91,37.91,0,0,0,24.84-49.21L2215,203.6c-5.57-15.42-3.89-32.33,3.83-46.78C2230.36,135.16,2233.06,104.9,2224,74.36Z" transform="translate(0 0)"/><rect class="cls-2" x="2543.27" y="169.2" width="384.43" height="82.06" transform="translate(207.82 1276.98) rotate(-27.28)"/><rect class="cls-2" x="2891.57" y="39.17" width="62.21" height="161.44" rx="24.53" transform="translate(270.03 1352.72) rotate(-27.28)"/><rect class="cls-2" x="2793.71" y="16.7" width="109.02" height="282.95" rx="42.99" transform="translate(244.21 1322.86) rotate(-27.28)"/><rect class="cls-2" x="2496.43" y="242.84" width="62.21" height="161.44" rx="24.53" transform="translate(132.76 1194.28) rotate(-27.28)"/><rect class="cls-2" x="2548.17" y="143.3" width="109.02" height="282.95" rx="42.99" transform="translate(158.89 1224.41) rotate(-27.28)"/><path class="cls-2" d="M1071.52,93.69s54.34,7.87,53.65-64.63C1125.17,29.06,1058.49,25.25,1071.52,93.69Z" transform="translate(0 0)"/><path class="cls-2" d="M1069.6,101.7s-3.38,6.15-7.8,3.45c0,0-23.32-39.54-25.59-77.37a79.62,79.62,0,0,1,34.73-20.06S1074.63,93.07,1069.6,101.7Z" transform="translate(0 0)"/><path class="cls-2" d="M1064.54,106.11S1046.14,25.73,945,66C945,66,975.73,161.4,1064.54,106.11Z" transform="translate(0 0)"/><path class="cls-2" d="M1309.22,148.93a264,264,0,0,1,9,38,232.77,232.77,0,0,1-1.63,83.26c-4.86,23.93-11.79,45.27-30.91,61.37-9.55,8-20.75,16.14-32.44,20.63-12.13,4.66-25.23,6.79-36.69,13.11l2.34-1.11c-13.53,7.49-23.09,20.79-36.31,29.22-14.22,9.07-32.27,17.75-49.38,18.32-16.55.55-31.64-4.28-47.31-8.94-70-20.83-148.07-98.27-149.72-174.79-1.58-73.18,65.47-109.26,126.34-129.08l2.51-1.45c22.36-20.12,48.51-39.63,76.44-50.72,0,0-15.77,22.16,13.31,44.2,0,0-8.19,30.9,15.35,49,18.49,14.24,45.38,7.51,55.74.06,0,0,1.7,28.33,33.69,34.36C1292.14,180.51,1309.22,148.93,1309.22,148.93Z" transform="translate(0 0)"/><path class="cls-2" d="M1492.31,141.24l.31-.2a18.2,18.2,0,0,1,25.28,4.88L1564,214.19a9.63,9.63,0,0,0,13.36,2.58l.16-.11a9.62,9.62,0,0,0,2.58-13.35L1534,135a18.2,18.2,0,0,1,4.88-25.28l.34-.22a18.2,18.2,0,0,1,25.28,4.88l46.14,68.27a9.62,9.62,0,0,0,13.36,2.58l.16-.11a9.62,9.62,0,0,0,2.58-13.35l-46.14-68.26a18.21,18.21,0,0,1,4.88-25.29l.31-.2a18.2,18.2,0,0,1,25.28,4.88l64.17,94.93a73.68,73.68,0,0,1,9.44,62.85c-5.54,18.21-1.28,38,10.26,53.13l161.41,211.72a40.79,40.79,0,0,1-9.59,58.53l-.73.49a40.79,40.79,0,0,1-57.89-12.91L1651.85,323c-9.74-16.35-26.51-27.68-45.46-29.33a73.65,73.65,0,0,1-54.8-32.18l-64.17-94.93A18.22,18.22,0,0,1,1492.31,141.24Z" transform="translate(0 0)"/><path class="cls-2" d="M555.49,551.07c22.55-48,12.75-100.1-21.91-116.39s-81,9.4-103.6,57.39c-13.56,28.84-15.41,59.16-7.22,82.31a57.65,57.65,0,0,1-3.2,46.82L299.06,843.66A37.91,37.91,0,0,0,316.27,896l.73.34a37.9,37.9,0,0,0,51.3-20.16l94.41-234.72c6.11-15.2,18.63-26.7,34-32.34C519.77,600.68,541.93,579.91,555.49,551.07Z" transform="translate(0 0)"/><rect class="cls-2" x="859.49" y="700.48" width="384.43" height="82.06" transform="translate(501.72 -421.86) rotate(29.51)"/><rect class="cls-2" x="1198.7" y="767.91" width="62.21" height="161.44" rx="24.53" transform="translate(577.6 -495.7) rotate(29.51)"/><rect class="cls-2" x="1102.49" y="665.84" width="109.02" height="282.95" rx="42.99" transform="translate(547.8 -465.2) rotate(29.51)"/><rect class="cls-2" x="811.87" y="548.88" width="62.21" height="161.44" rx="24.53" transform="translate(419.51 -333.56) rotate(29.51)"/><rect class="cls-2" x="862.07" y="529.76" width="109.02" height="282.95" rx="42.99" transform="translate(449.57 -364.42) rotate(29.51)"/><rect class="cls-2" x="80.66" y="197.38" width="384.43" height="82.06" transform="translate(-34.68 46.81) rotate(-9.22)"/><rect class="cls-2" x="447.73" y="129.81" width="62.21" height="161.44" rx="24.53" transform="translate(-27.55 79.46) rotate(-9.22)"/><rect class="cls-2" x="341.68" y="82.38" width="109.02" height="282.95" rx="42.99" transform="translate(-30.75 66.38) rotate(-9.22)"/><rect class="cls-2" x="8.92" y="201" width="62.21" height="161.44" rx="24.53" transform="translate(-44.63 10.06) rotate(-9.22)"/><rect class="cls-2" x="68.99" y="126.66" width="109.02" height="282.95" rx="42.99" transform="translate(-41.37 23.26) rotate(-9.22)"/></g></svg>